<svg xmlns="http://www.w3.org/2000/svg" viewBox="0 0 490 326" width="490" height="326" role="img" aria-label="About Abhishek Gajera">
<style>
text{font-family:ui-monospace,SFMono-Regular,Menlo,Consolas,'Liberation Mono',monospace;font-size:12.5px}
@keyframes in{from{opacity:0;transform:translateX(-10px)}to{opacity:1;transform:none}}.l{opacity:0;animation:in .45s cubic-bezier(.2,.8,.3,1) both}
</style>
<rect x="0.5" y="0.5" width="489" height="325" rx="8" fill="#0d1117" stroke="#30363d"/>
<path d="M8.5 0.5h473a8 8 0 0 1 8 8V26H0.5V8.5a8 8 0 0 1 8-8z" fill="#161b22"/>
<line x1="0.5" y1="26" x2="489.5" y2="26" stroke="#30363d"/>
<circle cx="16" cy="13.0" r="5" fill="#ff5f56"/>
<circle cx="32" cy="13.0" r="5" fill="#ffbd2e"/>
<circle cx="48" cy="13.0" r="5" fill="#27c93f"/>
<text x="245.0" y="17.0" text-anchor="middle" fill="#8b949e" style="font-size:11px">neofetch</text>
<g class="l" style="animation-delay:0.40s"><text x="22" y="60" font-weight="700"><tspan fill="#58a6ff">abhishek</tspan><tspan fill="#c9d1d9">@</tspan><tspan fill="#58a6ff">github</tspan></text></g>
<g class="l" style="animation-delay:0.54s"><text x="22" y="80" fill="#8b949e">---------------</text></g>
<g class="l" style="animation-delay:0.68s"><text x="22" y="100"><tspan fill="#39d353" font-weight="700">Role</tspan><tspan fill="#8b949e">:</tspan></text><text x="114" y="100" fill="#c9d1d9">Full-stack JavaScript Developer</text></g>
<g class="l" style="animation-delay:0.82s"><text x="22" y="120"><tspan fill="#39d353" font-weight="700">Uptime</tspan><tspan fill="#8b949e">:</tspan></text><text x="114" y="120" fill="#c9d1d9">5+ years shipping on GitHub</text></g>
<g class="l" style="animation-delay:0.96s"><text x="22" y="140"><tspan fill="#39d353" font-weight="700">Languages</tspan><tspan fill="#8b949e">:</tspan></text><text x="114" y="140" fill="#c9d1d9">TypeScript · JavaScript · Dart</text></g>
<g class="l" style="animation-delay:1.10s"><text x="22" y="160"><tspan fill="#39d353" font-weight="700">Frontend</tspan><tspan fill="#8b949e">:</tspan></text><text x="114" y="160" fill="#c9d1d9">React · Next.js · Electron · Flutter</text></g>
<g class="l" style="animation-delay:1.24s"><text x="22" y="180"><tspan fill="#39d353" font-weight="700">Backend</tspan><tspan fill="#8b949e">:</tspan></text><text x="114" y="180" fill="#c9d1d9">Node.js · Express · REST APIs</text></g>
<g class="l" style="animation-delay:1.38s"><text x="22" y="200"><tspan fill="#39d353" font-weight="700">Data</tspan><tspan fill="#8b949e">:</tspan></text><text x="114" y="200" fill="#c9d1d9">PostgreSQL · MongoDB · MySQL</text></g>
<g class="l" style="animation-delay:1.52s"><text x="22" y="220"><tspan fill="#39d353" font-weight="700">Cloud</tspan><tspan fill="#8b949e">:</tspan></text><text x="114" y="220" fill="#c9d1d9">AWS · GitHub Actions · Codemagic</text></g>
<g class="l" style="animation-delay:1.66s"><text x="22" y="240"><tspan fill="#39d353" font-weight="700">Built</tspan><tspan fill="#8b949e">:</tspan></text><text x="114" y="240" fill="#c9d1d9">e-commerce, inventory, real-time chat,</text></g>
<g class="l" style="animation-delay:1.80s"><text x="22" y="260"></text><text x="114" y="260" fill="#c9d1d9">AI workspaces, mobile apps</text></g>
<g class="l" style="animation-delay:2.08s"><rect x="22" y="289" width="22" height="12" rx="2" fill="#ff7b72"/><rect x="46" y="289" width="22" height="12" rx="2" fill="#ffa657"/><rect x="70" y="289" width="22" height="12" rx="2" fill="#d29922"/><rect x="94" y="289" width="22" height="12" rx="2" fill="#3fb950"/><rect x="118" y="289" width="22" height="12" rx="2" fill="#39c5cf"/><rect x="142" y="289" width="22" height="12" rx="2" fill="#58a6ff"/><rect x="166" y="289" width="22" height="12" rx="2" fill="#bc8cff"/><rect x="190" y="289" width="22" height="12" rx="2" fill="#c9d1d9"/></g>
<rect x="222" y="289" width="8" height="13" fill="#39d353" opacity="0"><animate attributeName="opacity" values="0.9;0.9;0;0" keyTimes="0;0.5;0.5;1" dur="1.1s" begin="2.52s" repeatCount="indefinite"/></rect>
</svg>
